<?xml version="1.0"?>
<svg xmlns="http://www.w3.org/2000/svg" xmlns:xlink="http://www.w3.org/1999/xlink" xmlns:svgjs="http://svgjs.com/svgjs" version="1.1" width="512" height="512" x="0" y="0" viewBox="0 0 512 512" style="enable-background:new 0 0 512 512" xml:space="preserve" class=""><g transform="matrix(0.1,0,0,0.1,230.3999382019043,230.4000102996826)"><path xmlns="http://www.w3.org/2000/svg" d="m365.291 168.033a295.963 295.963 0 0 0 -293.291 295.967 24 24 0 0 1 -48 0 343.66 343.66 0 0 1 341.376-343.968l31.958 23.968zm-14.891 91.167 128-96a24 24 0 0 0 0-38.4l-128-96a24 24 0 1 0 -28.8 38.4l102.4 76.8-102.4 76.8a24 24 0 1 0 28.8 38.4z" fill="#f78b03" data-original="#000000" style="" class=""/></g></svg>
