<svg xmlns="http://www.w3.org/2000/svg" width="631.205" height="193.184" viewBox="0 0 631.205 193.184"><path fill="#E6332A" d="M0 55.17h576.028v138.013H0z"/><g fill="#fff"><path d="M147.33 147.032c-.178-.86-1.085-1.23-1.808-.876-3.937 1.996-8.36 3.004-13.155 3.004-14.963 0-20.267-6.707-20.267-25.626 0-17.624 5.42-24.177 20.008-24.177 4.587 0 9.56.98 13.31 2.633.765.338 1.614-.15 1.757-.97l.76-4.9c.093-.563-.21-1.118-.717-1.35-3.236-1.498-9.552-3.016-15.364-3.016-19.396 0-28.048 9.802-28.048 31.778 0 22.982 8.6 33.23 27.878 33.23 6.264 0 12.326-1.942 15.915-3.76.508-.26.78-.83.663-1.38l-.932-4.59zM199.33 92.72h-37.464c-.697 0-1.262.57-1.262 1.266v60.385c0 .704.565 1.27 1.262 1.27h5.596c.697 0 1.262-.564 1.262-1.27V127.06h25.688c.697 0 1.267-.57 1.267-1.267v-4.83c0-.698-.57-1.265-1.268-1.265h-25.688v-19.29h30.605c.677 0 1.266-.543 1.266-1.306v-5.163c-.025-.68-.585-1.218-1.267-1.218zM254.572 121.382h-5.564c-.697 0-1.267.57-1.267 1.267v24.567c-3.44 1.236-7.178 1.863-11.674 1.863-15.208 0-20.6-6.478-20.6-24.74 0-18.566 5.523-25.146 21.11-25.146 5.246 0 10.276.976 14.94 2.884.766.325 1.602-.18 1.736-.972l.764-4.905c.09-.574-.217-1.136-.764-1.367-4.54-1.898-11.025-3.075-16.932-3.075-20.432 0-29.15 9.77-29.15 32.664 0 22.673 8.667 32.344 28.98 32.344 6.773 0 14.036-1.367 18.962-3.66.438-.207.725-.653.725-1.145v-29.31c0-.7-.57-1.268-1.265-1.268zM325.775 122.2c4.465-2.49 6.895-7.174 6.895-13.398 0-10.677-6.38-16.083-18.975-16.083h-22.322c-.696 0-1.266.57-1.266 1.266v60.385c0 .704.57 1.27 1.266 1.27h23.594c13.545 0 20.416-6.114 20.416-18.17 0-7.775-3.23-12.9-9.608-15.27zm-27.43-22.197h15.175c8.012 0 11.28 2.803 11.28 9.685 0 6.66-3.368 9.765-10.603 9.765h-15.854v-19.45zm16.7 48.436H298.26v-22.112h16.45c8.738 0 12.633 3.312 12.633 10.732 0 7.975-3.677 11.38-12.298 11.38zM374.655 93.523c-.188-.49-.654-.805-1.178-.805h-6.613c-.522 0-.983.314-1.17.798l-24.16 60.382c-.347.872.316 1.738 1.177 1.738h6.022c.522 0 .998-.33 1.183-.813l5.708-15.124h28.844l5.708 15.118c.19.498.65.818 1.188.818h6.272c.87 0 1.52-.893 1.17-1.732l-24.15-60.38zm-16.207 38.894l10.63-27.864 1.112-3.14 1.083 3.16 10.46 27.844H358.45zM455.844 92.72h-5.278c-.728 0-1.23.582-1.23 1.266v44.56l.11 2.478-1.487-2.19-31.793-45.584c-.24-.34-.62-.53-1.03-.53h-5.796c-.695 0-1.265.57-1.265 1.266v60.385c0 .704.568 1.27 1.266 1.27h5.377c.697 0 1.264-.564 1.264-1.27v-45.586l-.032-2.65 1.545 2.27 32.89 46.714c.24.324.62.52 1.025.52h4.438c.702 0 1.27-.562 1.27-1.267V93.986c-.004-.696-.57-1.266-1.272-1.266zM521.892 153.583l-24.533-31.075 23.067-27.71c.662-.776.163-2.08-.966-2.08h-6.95c-.378 0-.734.17-.97.46l-21.224 25.627h-9.086v-24.82c0-.695-.564-1.267-1.263-1.267h-5.6c-.697 0-1.263.57-1.263 1.267v60.385c0 .703.564 1.268 1.262 1.268h5.6c.698 0 1.264-.563 1.264-1.268v-27.644h8.963l22.415 28.416c.235.316.603.494 1.003.494h7.292c1.095 0 1.628-1.236.99-2.053z"/></g><path fill="#E6332A" d="M516.257 55.17c-1.422 45.158 35.308 68.85 59.77 68.576V55.17h-59.77z"/><path fill="#E5332A" d="M516.307 55.17c-1.405 45 35.192 68.704 59.722 68.432v-68.43h-59.723z"/><path fill="#E4332A" d="M516.356 55.17c-1.392 44.84 35.077 68.556 59.67 68.286V55.17h-59.67z"/><path fill="#E3332A" d="M516.406 55.17c-1.376 44.684 34.964 68.41 59.622 68.142v-68.14h-59.622z"/><path fill="#E23329" d="M516.455 55.17c-1.36 44.525 34.85 68.262 59.573 67.998V55.17h-59.573z"/><path fill="#E13229" d="M516.504 55.17c-1.345 44.368 34.736 68.114 59.523 67.854V55.17h-59.523z"/><path fill="#E03229" d="M516.554 55.17c-1.33 44.21 34.622 67.967 59.475 67.71V55.17h-59.476z"/><path fill="#DF3229" d="M516.604 55.172c-1.313 44.05 34.51 67.818 59.425 67.563V55.172h-59.426z"/><path fill="#DE3228" d="M516.653 55.17c-1.298 43.894 34.395 67.673 59.375 67.42V55.17h-59.375z"/><path fill="#DD3228" d="M516.702 55.17c-1.282 43.735 34.28 67.524 59.326 67.274V55.17h-59.326z"/><path fill="#DC3128" d="M516.75 55.17c-1.267 43.578 34.167 67.378 59.277 67.13V55.17H516.75z"/><path fill="#DB3128" d="M516.8 55.17c-1.25 43.42 34.053 67.23 59.23 66.986V55.17H516.8z"/><path fill="#DA3127" d="M516.85 55.17c-1.235 43.262 33.938 67.083 59.18 66.842v-66.84h-59.18zM516.9 55.17c-1.222 43.104 33.823 66.936 59.128 66.698V55.17H516.9z"/><path fill="#D93127" d="M516.95 55.17c-1.206 42.945 33.71 66.788 59.077 66.553V55.17H516.95z"/><path fill="#D83027" d="M516.998 55.17c-1.188 42.787 33.597 66.64 59.03 66.41V55.17h-59.03z"/><path fill="#D73026" d="M517.047 55.17c-1.174 42.63 33.482 66.494 58.98 66.264V55.17h-58.98z"/><path fill="#D63026" d="M517.097 55.17c-1.157 42.472 33.368 66.347 58.932 66.12V55.17h-58.933z"/><path fill="#D53026" d="M517.146 55.17c-1.144 42.314 33.255 66.2 58.882 65.976V55.17h-58.882z"/><path fill="#D43026" d="M517.196 55.17c-1.128 42.155 33.14 66.052 58.832 65.83V55.17h-58.832z"/><path fill="#D33026" d="M517.246 55.17c-1.112 41.998 33.025 65.905 58.782 65.687V55.17h-58.782z"/><path fill="#D22F25" d="M517.294 55.17c-1.097 41.84 32.912 65.757 58.733 65.543V55.17h-58.733z"/><path fill="#D12F25" d="M517.344 55.17c-1.08 41.682 32.798 65.61 58.685 65.397V55.17h-58.686z"/><path fill="#D02F25" d="M517.393 55.17c-1.064 41.522 32.686 65.462 58.636 65.253V55.17h-58.637z"/><path fill="#CF2F25" d="M517.443 55.17c-1.052 41.365 32.57 65.314 58.585 65.108V55.17h-58.585z"/><path fill="#CE2F24" d="M517.493 55.17c-1.035 41.208 32.456 65.168 58.535 64.964V55.17h-58.535z"/><path fill="#CD2E24" d="M517.542 55.17c-1.02 41.05 32.343 65.02 58.486 64.82V55.17h-58.486z"/><path fill="#CC2E24" d="M517.59 55.17c-1.003 40.892 32.23 64.873 58.44 64.676V55.17h-58.44z"/><path fill="#CB2E24" d="M517.64 55.17c-.986 40.732 32.114 64.726 58.39 64.53V55.17h-58.39z"/><path fill="#CA2E23" d="M517.69 55.17c-.974 40.575 32 64.58 58.338 64.387V55.17H517.69z"/><path fill="#C92E23" d="M517.74 55.17c-.957 40.417 31.886 64.432 58.288 64.242v-64.24h-58.29z"/><path fill="#C82E23" d="M517.79 55.17c-.942 40.26 31.77 64.284 58.238 64.098V55.17h-58.24z"/><path fill="#C72D23" d="M517.838 55.17c-.927 40.102 31.658 64.137 58.19 63.953V55.17h-58.19z"/><path fill="#C62D22" d="M517.887 55.17c-.91 39.943 31.544 63.99 58.142 63.81V55.17h-58.143z"/><path fill="#C52D22" d="M517.938 55.17c-.896 39.785 31.43 63.842 58.09 63.665V55.17h-58.09z"/><path fill="#C42D22" d="M517.986 55.17c-.88 39.627 31.315 63.694 58.042 63.52V55.17h-58.042z"/><path fill="#C32D22" d="M518.036 55.17c-.864 39.47 31.202 63.547 57.992 63.376V55.17h-57.992z"/><path fill="#C22C21" d="M518.084 55.17c-.848 39.312 31.09 63.4 57.943 63.23V55.17h-57.943z"/><path fill="#C12C21" d="M518.134 55.17c-.833 39.153 30.976 63.253 57.895 63.087V55.17h-57.896z"/><path fill="#C02C21" d="M518.184 55.17c-.816 38.996 30.86 63.105 57.845 62.94V55.17h-57.846z"/><path fill="#BF2C21" d="M518.234 55.17c-.804 38.837 30.744 62.958 57.794 62.798V55.17h-57.794z"/><path fill="#BE2C20" d="M518.283 55.17c-.787 38.68 30.632 62.81 57.745 62.653V55.17h-57.745z"/><path fill="#BD2B20" d="M518.332 55.17c-.77 38.522 30.52 62.663 57.696 62.51V55.17h-57.696z"/><path fill="#BC2B20" d="M518.38 55.17c-.755 38.363 30.404 62.516 57.647 62.364V55.17H518.38z"/><path fill="#BB2B20" d="M518.43 55.17c-.738 38.205 30.29 62.37 57.6 62.22V55.17h-57.6z"/><path fill="#BA2B20" d="M518.48 55.17c-.726 38.048 30.176 62.222 57.548 62.075V55.17H518.48z"/><path fill="#B92B1F" d="M518.53 55.17c-.71 37.89 30.062 62.074 57.498 61.93V55.17H518.53z"/><path fill="#B82B1F" d="M518.58 55.17c-.694 37.73 29.947 61.927 57.448 61.787V55.17H518.58z"/><path fill="#B72A1F" d="M518.628 55.17c-.678 37.573 29.834 61.78 57.4 61.642v-61.64h-57.4z"/><path fill="#B62A1F" d="M518.677 55.17c-.662 37.416 29.722 61.632 57.352 61.498V55.17h-57.353z"/><path fill="#B52A1E" d="M518.727 55.17c-.646 37.258 29.605 61.485 57.302 61.354V55.17h-57.303z"/><path fill="#B42A1E" d="M518.777 55.17c-.633 37.1 29.49 61.338 57.25 61.21V55.17h-57.25z"/><path fill="#B32A1E" d="M518.826 55.17c-.616 36.94 29.378 61.19 57.202 61.064V55.17h-57.202z"/><path fill="#B2291E" d="M518.875 55.17c-.6 36.783 29.264 61.043 57.152 60.92V55.17h-57.152z"/><path fill="#B1291D" d="M518.924 55.17c-.585 36.625 29.15 60.896 57.104 60.774V55.17h-57.104z"/><path fill="#B0291D" d="M518.974 55.17c-.568 36.467 29.035 60.748 57.055 60.63V55.17h-57.056z"/><path fill="#AF291D" d="M519.023 55.17c-.555 36.31 28.922 60.6 57.005 60.486V55.17h-57.005z"/><path fill="#AE291D" d="M519.073 55.17c-.538 36.15 28.808 60.454 56.955 60.342v-60.34h-56.955z"/><path fill="#AD291C" d="M519.123 55.17c-.523 35.993 28.693 60.306 56.905 60.197V55.17h-56.905z"/><path fill="#AC281C" d="M519.17 55.17c-.506 35.835 28.58 60.16 56.857 60.053V55.17H519.17z"/><path fill="#AB281C" d="M519.22 55.17c-.49 35.677 28.468 60.012 56.81 59.91V55.17h-56.81z"/><path fill="#AA281C" d="M519.27 55.17c-.477 35.52 28.353 59.864 56.758 59.765V55.17H519.27z"/><path fill="#A9281B" d="M519.32 55.17c-.46 35.36 28.236 59.717 56.708 59.62V55.17H519.32z"/><path fill="#A8281B" d="M519.37 55.17c-.446 35.203 28.123 59.57 56.658 59.476V55.17h-56.66z"/><path fill="#A7271B" d="M519.418 55.17c-.43 35.045 28.01 59.422 56.61 59.33V55.17h-56.61z"/><path fill="#A6271B" d="M519.468 55.17c-.414 34.887 27.896 59.274 56.56 59.187V55.17h-56.56z"/><path fill="#A5271A" d="M519.517 55.17c-.397 34.73 27.78 59.128 56.512 59.042v-59.04h-56.513z"/><path fill="#A4271A" d="M519.567 55.17c-.385 34.57 27.668 58.98 56.46 58.897V55.17h-56.46z"/><path fill="#A3271A" d="M519.617 55.17c-.37 34.413 27.553 58.833 56.41 58.753V55.17h-56.41z"/><path fill="#A2261A" d="M519.666 55.17c-.354 34.255 27.44 58.686 56.362 58.607V55.17h-56.362z"/><path fill="#A1261A" d="M519.715 55.17c-.337 34.097 27.325 58.54 56.313 58.464V55.17h-56.313z"/><path fill="#A02619" d="M519.764 55.17c-.32 33.94 27.212 58.39 56.265 58.32V55.17h-56.266z"/><path fill="#9F2619" d="M519.814 55.17c-.307 33.78 27.098 58.244 56.214 58.176V55.17h-56.214z"/><path fill="#9E2619" d="M519.863 55.17c-.29 33.623 26.982 58.097 56.165 58.03V55.17h-56.165z"/><path fill="#9D2619" d="M519.913 55.17c-.274 33.465 26.87 57.95 56.115 57.887V55.17h-56.115z"/><path fill="#9C2518" d="M519.962 55.17c-.26 33.307 26.755 57.802 56.065 57.742v-57.74h-56.065z"/><path fill="#9B2518" d="M520.01 55.17c-.243 33.148 26.644 57.654 56.02 57.598V55.17h-56.02z"/><path fill="#9A2518" d="M520.06 55.17c-.228 32.99 26.528 57.507 55.97 57.454V55.17h-55.97z"/><path fill="#992518" d="M520.11 55.17c-.214 32.833 26.413 57.358 55.918 57.31V55.17H520.11z"/><path fill="#982517" d="M520.16 55.17c-.197 32.675 26.3 57.212 55.868 57.165V55.17H520.16z"/><path fill="#972417" d="M520.208 55.17c-.182 32.517 26.186 57.064 55.82 57.02V55.17h-55.82z"/><path fill="#962417" d="M520.258 55.17c-.166 32.358 26.07 56.918 55.77 56.876V55.17h-55.77z"/><path fill="#952417" d="M520.308 55.17c-.15 32.2 25.957 56.77 55.72 56.73V55.17h-55.72z"/><path fill="#942416" d="M520.357 55.17c-.137 32.043 25.844 56.623 55.67 56.587V55.17h-55.67z"/><path fill="#932416" d="M520.407 55.17c-.12 31.885 25.73 56.476 55.62 56.44V55.17h-55.62z"/><path fill="#922316" d="M520.457 55.17c-.105 31.727 25.615 56.328 55.57 56.298V55.17h-55.57z"/><path fill="#912316" d="M520.505 55.17c-.09 31.57 25.5 56.18 55.522 56.153V55.17h-55.522z"/><path fill="#902315" d="M520.554 55.17c-.072 31.41 25.39 56.034 55.475 56.01V55.17h-55.476z"/><path fill="#8F2315" d="M520.604 55.17c-.058 31.253 25.273 55.886 55.425 55.864V55.17h-55.426z"/><path fill="#8E2315" d="M520.654 55.17c-.043 31.095 25.158 55.74 55.374 55.72V55.17h-55.374z"/><path fill="#8D2315" d="M520.703 55.17c-.027 30.937 25.046 55.592 55.325 55.575V55.17h-55.325z"/><path fill="#8C2214" d="M520.752 55.17c-.012 30.78 24.932 55.445 55.275 55.43V55.17h-55.275z"/><path fill="#8B2214" d="M520.8 55.17c.005 30.62 24.818 55.297 55.23 55.286V55.17H520.8z"/><path fill="#8A2214" d="M520.85 55.17c.022 30.463 24.704 55.15 55.18 55.142v-55.14h-55.18z"/><path fill="#E6332A" d="M631.205 55.14c.02 30.467-24.666 55.174-55.145 55.203-30.474.01-55.19-24.68-55.21-55.14C520.847 24.73 545.526.02 575.995 0c30.472-.02 55.19 24.675 55.21 55.14z"/><path fill="#fff" d="M575.995 6.924c-26.645.02-48.235 21.625-48.222 48.27.014 26.65 21.625 48.238 48.282 48.233 26.654-.024 48.246-21.63 48.228-48.285-.02-26.635-21.64-48.236-48.288-48.218zm.06 93.526c-25.012.01-45.3-20.257-45.31-45.255C530.73 30.188 550.997 9.912 576 9.893c25.007-.01 45.297 20.253 45.31 45.254.01 25.01-20.246 45.285-45.254 45.303z"/><g fill="#fff"><path d="M605.705 78.184c-.297-2.54-7.954-5.13-8.873-4.3-.796.728-1.667 4.042-1.988 7.202-.86.78-2.066 1.907-2.335 2.303-.214.333.24 1.02.725 1.61-.628.604-1.407 1.16-2.676 2.168-5.676 4.512-9.958.975-11.314-2.063-3.283-7.36-2.38-23.344-2.79-23.3-.37.025-1.318 1.436-1.495 2.405-.68 3.625-.772 13.767.07 19.915.42 3.11 1.328 8.375 4.7 10.046 3.392 1.663 7.21 1.645 10.834-1.5 2.18-1.895 3.604-3.472 5.037-6.607 1.636.015 4.296-.097 6.114-.886 2.794-1.205 4.28-4.46 3.99-6.993zm-8.657 3.91c.075-1.823.42-4 .976-4.065.696-.078 3.78 1.098 4.423 2.552 0 0-2.097 1.908-5.4 1.51zM610.41 75.716c-1.61-3.923-4.434-6.108-7.682-7.945-5.455-3.096-19.976-11.374-24.73-14.077-.444-4.563-.218-24.283-.33-27.938-.09-3.572-.2-5.266.48-7.45.757-2.427 2.13-3.986 1.646-4.32-.494-.342-1.276.047-1.94.86-2.675 3.284-3.25 6.81-3.312 10.542-.116 6.26-.46 22.93-.583 28.425-3.383 2.383-20.806 13.043-24.022 14.918-3.1 1.797-4.53 2.698-6.776 3.146-2.49.5-4.517.035-4.578.615-.063.6.646 1.094 1.687 1.298 4.164.77 7.527-.407 10.84-2.126 5.67-2.953 20.45-12.04 25-14.394 4.06 1.676 21.515 11.412 24.792 13.08 3.202 1.612 4.737 2.328 6.33 3.972 1.78 1.82 2.496 3.767 3.016 3.503.534-.275.557-1.14.162-2.107zM571.965 77.762c-.365-.688-3.73 2.086-4.317 2.974-.584.9-.154 6.083-.154 6.083s-.914 3.187-9.072-1.508c-6.913-3.98-5.61-7.21-3.262-9.56 2.358-2.343 4.785-2.833 4.295-4-.302-.75-1.333-.44-4.05 1.115-2.736 1.556-7.107 4.644-7.25 8.408-.137 3.77 2.185 8.1 10.84 10.793 8.61 2.675 11.333-4.06 12.167-6.45 1.286-3.683.978-7.53.803-7.856zM565.198 75.5c-.642-.38-3.685.835-3.888 1.56-.205.732.336 3.604.968 3.874.63.27 3.877-.89 4.115-1.43.223-.48-.62-3.656-1.195-4.003zM568.72 49.446c-2.807-2.245-11.962-7.07-17.763-9.13-2.938-1.047-8.012-2.655-11.242-.462-3.465 2.353-4.573 7.44-2.66 11.846.535 1.22 1.14 2.208 1.795 3.007-.796 1.43-1.932 3.757-2.115 5.684-.282 3.03 1.854 5.892 4.23 6.86 2.36.967 8.312-4.504 8.018-5.713-.247-1.046-2.73-3.407-5.347-5.197-.275-1.135-.687-2.737-.906-3.16-.16-.307-.816-.297-1.483-.192-.246-.776-.426-1.716-.404-2.78.133-6.465 3.678-6.852 7.042-6.655 8.15.48 21.977 8.656 22.167 8.282.107-.234-.345-1.614-1.332-2.39zm-27.03 8.337c1.557.94 3.294 2.28 3.085 2.81-.256.648-2.77 2.79-4.358 2.645 0 0-.66-2.758 1.274-5.455zM615.954 49.91c-2.67-9.515-10.12-6.57-12.783-5.698-1.084.354-8.227 3.468-16.05 5.77 4.48-2.565 10.1-6.886 13.79-10.07 2.385-2.05 6.313-5.67 5.874-9.414-.472-4.014-4.52-7.215-9.474-7.566-1.295-.09-2.468-.076-3.615.066-.207-1.77-1.306-3.63-2.55-4.793-2.15-2.032-5.825-2.835-7.906-1.526-1.857 1.165-2.314 9.174-1.234 9.772.955.53 4.36.292 7.464-.422 1.014.56 2.718.88 3.175 1.01.457.124.612-.353 1.045-1.087.608.104 1.552.276 2.38.54 7.58 2.465 5.182 6.55 3.367 9.346-4.327 6.687-17.063 14.987-17.668 15.477 0 0 0 .01-.015.014v.008c-.08.067-.112.153-.08.292.16.94 6.906 1.324 15.213-1.726 5.997-2.19 8.807-2.917 10.567-3.13.708-.082 2.868.98 3.14 7.297.353 7.976-3.24 9.088-6.49 8.395-3.255-.707-4.98-2.478-5.698-1.427-.457.656.353 1.347 3.15 2.793 2.787 1.443 7.752 3.442 10.982 1.508 3.24-1.934 5.853-6.7 3.414-15.427zm-30.398-25.916c-.307-.634-.485-4.255.692-5.34 0 0 3.126 1.526 3.47 4.968-1.75.506-3.917.878-4.162.372zM571.72 20.927c-.044-.38-.445-.917-1.907-2.15-3.427-2.898-9.024-3.493-13.094.693-1.837 1.885-2.605 3.222-3.05 5.395-1.613.27-3.872.804-5.37 1.762-2.56 1.632-3.514 5.083-2.814 7.55.696 2.458 8.67 3.785 9.44 2.817.675-.854 1-4.256.81-7.427.72-.908 1.854-2.11 2.04-2.55.15-.312-.28-.84-.805-1.325.654-1.207 1.58-2.22 3.825-3.514 2.77-1.58 6.226-1.892 9.073-.864.88.318 1.367.4 1.663.176.186-.137.205-.363.19-.563zm-18.93 12.136c-.7.218-4.12-.404-5.067-1.792 0 0 1.827-2.37 5.304-2.578.258 1.892.323 4.192-.237 4.37z"/></g></svg>